# xmcd CD database file
#
# Track frame offsets:
#	150
#	12413
#	23948
#	37370
#	50381
#	61548
#	70868
#	80198
#	94359
#	109781
#	123699
#
# Disc length: 1856 seconds
#
# Revision: 0
# Processed by: cddbd v1.5.2PL0 Copyright (c) Steve Scherf et al.
# Submitted via: CDex 1.70beta2
#
DISCID=9b073e0b
DTITLE=Rita Engebretsen og Helge Borglund - Frem fra Glemselen kapittel 15
DYEAR=2005
DGENRE=Schillingsviser
TTITLE0=Helge Borglund - I Oleana
TTITLE1=Helge Borglund - Piken i dalen
TTITLE2=Rita Engebretsen - Mor, kjære mor
TTITLE3=Helge Borglund - Barnetro
TTITLE4=Helge Borglund - Mitt Paradis
TTITLE5=Helge Borglund - En sjømanns brud
TTITLE6=Helge Borglund - Lille Viggo
TTITLE7=Rita Engebretsen - Okinawa
TTITLE8=Rita Engebretsen - De tusen sjøers land
TTITLE9=Helge Borglund - Hawaiipiken
TTITLE10=Rita Engebretsen - Vildandens sang
EXTD=YEAR: 2005
EXTT0=
EXTT1=
EXTT2=
EXTT3=
EXTT4=
EXTT5=
EXTT6=
EXTT7=
EXTT8=
EXTT9=
EXTT10=
PLAYORDER=
